<?xml version="1.0" encoding="UTF-8"?>
<svg id="Layer_2" xmlns="http://www.w3.org/2000/svg" viewBox="0 0 1293.15 1329.58">
  <defs>
    <style>
      .cls-1 {
        fill: #26447e;
      }

      .cls-2 {
        fill: #be1e2d;
      }

      .cls-3 {
        fill: #fff;
      }

      .cls-4 {
        fill: #12376d;
      }
    </style>
  </defs>
  <g id="Layer_1-2" data-name="Layer_1">
    <g>
      <g>
        <path class="cls-1" d="M646.58,1329.58l-2.77-.36c-3.91-.52-393.35-55.96-580.12-455.26C-13.79,708.31-20.71,507.44,43.67,293.06,92.01,132.09,162.24,21.56,165.21,16.94L176.07,0l17.51,9.9c2.07,1.16,211.8,116.15,443.45-.48l9.56-4.82,9.56,4.82c231.62,116.61,441.37,1.64,443.47.47L1117.09.07l10.85,16.87c2.97,4.62,73.2,115.15,121.54,276.12,64.38,214.38,57.46,415.25-20.02,580.9-186.77,399.3-576.2,454.74-580.12,455.26l-2.77.36ZM191.24,56.27c-47.61,82.75-246.36,463.34-89.04,799.67,168.44,360.12,509.95,425.03,544.38,430.69,34.3-5.64,375.9-70.5,544.38-430.69,157.32-336.33-41.44-716.93-89.04-799.67-58.5,27.14-245.41,96.68-455.34-4.17-209.92,100.84-396.83,31.3-455.34,4.17Z"/>
        <path class="cls-3" d="M1110.05,28.41s-218.25,123.47-463.47,0c-245.22,123.47-463.47,0-463.47,0,0,0-284.15,443.18-100.16,836.54,183.99,393.36,563.63,443.18,563.63,443.18,0,0,379.64-49.82,563.63-443.18,183.99-393.36-100.16-836.54-100.16-836.54Z"/>
      </g>
      <path class="cls-2" d="M1208.29,423.88c-38.54-197.63-133.75-346.35-133.75-346.35,0,0-201.53,114.01-427.96,0-226.43,114.01-427.96,0-427.96,0,0,0-95.21,148.72-133.75,346.35h1123.42Z"/>
      <path class="cls-4" d="M79.11,456.68c-19.28,122.55-14.89,260.94,47.02,393.3,169.89,363.22,520.45,409.23,520.45,409.23,0,0,350.55-46,520.45-409.23,61.91-132.36,66.3-270.75,47.02-393.3H79.11Z"/>
    </g>
  </g>
</svg>