<?xml version="1.0" encoding="UTF-8"?>
<svg id="Layer_2" xmlns="http://www.w3.org/2000/svg" viewBox="0 0 1346.57 1415.47">
  <defs>
    <style>
      .cls-1 {
        fill: #26447e;
      }

      .cls-2 {
        fill: #fff;
      }

      .cls-3 {
        fill: #003255;
      }

      .cls-4 {
        fill: #e6e7e8;
      }
    </style>
  </defs>
  <g id="Layer_1-2" data-name="Layer_1">
    <g>
      <g>
        <path class="cls-1" d="M670.46,1415.47l-47.46-88.25c-9.05-9.06-79.19-71.29-291.19-67.94-98.97,1.71-196.65-61.98-260.63-170.15C5.4,977.88-6.8,852.96,40.1,770.87c80.44-140.75,105.81-248.26,73.37-310.9-50.3-97.13-84.92-152.88-85.27-153.43L0,261.26,300.59,0l40.7,32.38c3.95,2.96,114.46,83.33,305.1-7.53l26.89-12.81,26.89,12.81c191.37,91.17,304,8.39,305.1,7.53L1045.96,0l300.61,261.27-28.25,45.28c-.33.54-34.96,56.29-85.25,153.42-32.45,62.64-7.08,170.14,73.35,310.9,46.92,82.08,34.71,207-31.08,318.25-63.97,108.18-161.53,171.47-260.62,170.16-212.96-3.3-282.93,59.59-291.33,68.09l-52.94,88.1ZM349.11,1134.08c113.78,0,208.33,17.04,281.28,50.75,16.89,7.8,31.07,15.79,42.89,23.47,11.82-7.68,25.99-15.67,42.88-23.47,77.05-35.58,178.08-52.71,300.64-50.58.57,0,1.14.01,1.71.01,62.53,0,117.98-56.01,149.2-108.8,41.31-69.85,53.98-150.83,30.15-192.54h0c-105.47-184.55-130.26-325.35-75.83-430.45,25.64-49.52,47.28-88.59,62.94-115.97l-148.28-128.87c-64.07,30.11-191.22,65.09-363.41-7.76-172.23,72.86-299.36,37.89-363.41,7.76l-148.29,128.87c15.66,27.38,37.3,66.45,62.95,115.97,54.43,105.1,29.62,245.91-75.84,430.45-23.84,41.72-11.16,122.7,30.15,192.55,31.51,53.27,87.98,109.49,150.92,108.78,6.51-.11,12.97-.17,19.35-.17Z"/>
        <path class="cls-4" d="M671.84,1375.22l-34.56-58.9c-6.47-7.1-77.34-78.47-305.76-74.9-92.66,2.07-184.28-58.8-244.95-161.38-62.58-105.82-74.73-223.69-30.96-300.3,84.79-148.37,109.59-258.71,73.73-327.97-50.7-97.91-85.62-154.12-85.97-154.68l-20.16-32.34L301.09,23.23l29.07,23.14c4.58,3.49,122.26,90.69,323.9-5.38l19.21-9.14,19.21,9.14c201.6,96.08,319.33,8.9,324.23,5.12l28.94-22.13,27.85,23.62,249.84,217.14-20.17,32.34c-.34.56-35.26,56.77-85.96,154.68-35.87,69.26-11.06,179.61,73.72,327.97,43.78,76.6,31.63,194.47-30.94,300.29-59.92,101.31-149.98,161.42-241.52,161.42-1.14,0-2.28-.01-3.44-.03-229.03-3.81-299.84,68.35-305.82,74.98l-37.36,58.82ZM348.91,1151.94c182.1,0,278.18,44.8,324.36,77.95,47.75-34.28,148.64-81.28,343.22-77.78.66.01,1.34.01,1.99.01,59.58.01,120.96-43.79,164.6-117.57,45.09-76.24,57.53-162.8,30.28-210.5h0c-102.21-178.87-126.9-314.09-75.48-413.38,29.83-57.62,54.17-100.92,69.91-128.01l-168.26-146.24c-56.96,29.6-185.8,72.92-366.25-6.02-180.48,78.95-309.3,35.62-366.26,6.02l-168.27,146.24c15.74,27.09,40.08,70.39,69.91,128.01,51.42,99.3,26.73,234.52-75.49,413.38-27.26,47.7-14.8,134.27,30.29,210.51,44.11,74.59,106.28,118.49,166.59,117.55,6.39-.11,12.68-.17,18.86-.17Z"/>
        <path class="cls-3" d="M1252.15,801.9c-72.15-126.26-126.91-269.67-74.61-370.68,52.31-101.01,87.73-157.77,87.73-157.77l-221.08-192.14s-138.91,110.54-370.93,0c-232.02,110.54-370.93,0-370.93,0l-221.08,192.14s35.43,56.76,87.73,157.77c52.31,101.01-2.46,244.41-74.61,370.68-72.15,126.26,60.46,397.77,236.39,394.86,272.38-4.5,342.48,93.04,342.48,93.04,0,0,70.11-97.54,342.48-93.04,175.93,2.91,308.54-268.6,236.39-394.86Z"/>
      </g>
      <path class="cls-2" d="M1156.83,524.19l-967.48,13.17c-4.26,83.46-45.52,178.02-94.96,264.54-72.15,126.26,60.46,397.77,236.39,394.86,272.38-4.5,342.48,93.04,342.48,93.04,0,0,70.11-97.54,342.48-93.04,175.93,2.9,308.54-268.6,236.39-394.86-52.06-91.1-95.05-191.12-95.31-277.71Z"/>
      <path class="cls-2" d="M187.34,489.73l974.25-13.26c3.37-15.81,8.56-30.97,15.95-45.25,52.31-101.01,87.73-157.77,87.73-157.77l-221.08-192.14s-138.91,110.54-370.93,0c-232.02,110.54-370.93,0-370.93,0l-221.08,192.14s35.43,56.76,87.73,157.77c9.44,18.23,15.35,37.87,18.34,58.51Z"/>
    </g>
  </g>
</svg>